<svg width="32" height="20" viewBox="0 0 32 20" fill="none" xmlns="http://www.w3.org/2000/svg">
<path d="M6.975 14.3875C6.975 14.8548 6.83644 15.3115 6.57685 15.7C6.31725 16.0885 5.94828 16.3914 5.51659 16.5702C5.0849 16.749 4.60988 16.7958 4.1516 16.7046C3.69332 16.6134 3.27236 16.3884 2.94196 16.058C2.61156 15.7276 2.38655 15.3067 2.2954 14.8484C2.20424 14.3901 2.25102 13.9151 2.42984 13.4834C2.60865 13.0517 2.91146 12.6827 3.29997 12.4232C3.68848 12.1636 4.14524 12.025 4.6125 12.025H13.3875C13.8548 12.025 14.3115 12.1636 14.7 12.4232C15.0885 12.6827 15.3914 13.0517 15.5702 13.4834C15.749 13.9151 15.7958 14.3901 15.7046 14.8484C15.6134 15.3067 15.3884 15.7276 15.058 16.058C14.7276 16.3884 14.3067 16.6134 13.8484 16.7046C13.3901 16.7958 12.9151 16.749 12.4834 16.5702C12.0517 16.3914 11.6827 16.0885 11.4232 15.7C11.1636 15.3115 11.025 14.8548 11.025 14.3875V5.6125C11.025 5.14524 11.1636 4.68848 11.4232 4.29997C11.6827 3.91146 12.0517 3.60865 12.4834 3.42984C12.9151 3.25102 13.3901 3.20424 13.8484 3.2954C14.3067 3.38655 14.7276 3.61156 15.058 3.94196C15.3884 4.27236 15.6134 4.69332 15.7046 5.1516C15.7958 5.60988 15.749 6.0849 15.5702 6.51659C15.3914 6.94828 15.0885 7.31725 14.7 7.57685C14.3115 7.83644 13.8548 7.975 13.3875 7.975H4.6125C4.14524 7.975 3.68848 7.83644 3.29997 7.57685C2.91146 7.31725 2.60865 6.94828 2.42984 6.51659C2.25102 6.0849 2.20424 5.60988 2.2954 5.1516C2.38655 4.69332 2.61156 4.27236 2.94196 3.94196C3.27236 3.61156 3.69332 3.38655 4.1516 3.2954C4.60988 3.20424 5.0849 3.25102 5.51659 3.42984C5.94828 3.60865 6.31725 3.91146 6.57685 4.29997C6.83644 4.68848 6.975 5.14524 6.975 5.6125V14.3875Z" stroke="#64748B" stroke-width="1.5"/>
<path d="M23.1186 15V4.81818H24.6548V9.6804H24.7791L29.0497 4.81818H30.9837L26.8771 9.40199L30.9986 15H29.1491L25.858 10.451L24.6548 11.8331V15H23.1186Z" fill="#64748B"/>
</svg>
