<svg width="24" height="24" viewBox="0 0 24 24" fill="none" xmlns="http://www.w3.org/2000/svg">
<path d="M18.2395 8.97519L17.3453 9.07668L18.2395 8.97519ZM18.6867 12.9153L19.581 12.8138L18.6867 12.9153ZM5.31328 12.9153L4.41902 12.8138L5.31328 12.9153ZM5.76046 8.97519L6.65472 9.07668L5.76046 8.97519ZM4.44779 14.8721L3.76246 14.2887L3.76246 14.2887L4.44779 14.8721ZM19.5522 14.8721L18.8669 15.4555V15.4555L19.5522 14.8721ZM14.2699 4.37366H13.3699C13.3699 4.75836 13.6145 5.10052 13.9784 5.22514L14.2699 4.37366ZM9.73005 4.37366L10.0216 5.22514C10.3855 5.10052 10.6301 4.75836 10.6301 4.37366H9.73005ZM15.8428 20.3158C16.0172 19.8504 15.7813 19.3317 15.3158 19.1572C14.8504 18.9828 14.3317 19.2187 14.1572 19.6842L15.8428 20.3158ZM9.84276 19.6842C9.66832 19.2187 9.1496 18.9828 8.68416 19.1572C8.21871 19.3317 7.98281 19.8504 8.15724 20.3158L9.84276 19.6842ZM17.7772 17.1H6.22281V18.9H17.7772V17.1ZM17.3453 9.07668L17.7925 13.0168L19.581 12.8138L19.1338 8.87369L17.3453 9.07668ZM6.20754 13.0168L6.65472 9.07668L4.86621 8.87369L4.41902 12.8138L6.20754 13.0168ZM5.13312 15.4555C5.72876 14.7557 6.10579 13.9132 6.20754 13.0168L4.41902 12.8138C4.35968 13.3366 4.13812 13.8474 3.76246 14.2887L5.13312 15.4555ZM17.7925 13.0168C17.8942 13.9132 18.2712 14.7557 18.8669 15.4555L20.2375 14.2887C19.8619 13.8474 19.6403 13.3366 19.581 12.8138L17.7925 13.0168ZM6.22281 17.1C5.6196 17.1 5.20719 16.8032 5.02102 16.4751C4.84373 16.1627 4.84471 15.7943 5.13312 15.4555L3.76246 14.2887C2.95383 15.2387 2.92814 16.4342 3.45553 17.3635C3.97403 18.2772 4.99764 18.9 6.22281 18.9V17.1ZM17.7772 18.9C19.0024 18.9 20.026 18.2772 20.5445 17.3635C21.0719 16.4342 21.0462 15.2387 20.2375 14.2887L18.8669 15.4555C19.1553 15.7943 19.1563 16.1627 18.979 16.4751C18.7928 16.8032 18.3804 17.1 17.7772 17.1V18.9ZM15.1699 4.37366V4.26995H13.3699V4.37366H15.1699ZM19.1338 8.87369C18.8469 6.34618 16.9742 4.34827 14.5615 3.52219L13.9784 5.22514C15.8505 5.86611 17.1499 7.35508 17.3453 9.07668L19.1338 8.87369ZM10.6301 4.37366V4.26995H8.83005V4.37366H10.6301ZM6.65472 9.07668C6.85012 7.35508 8.14952 5.86611 10.0216 5.22514L9.43852 3.52219C7.0258 4.34827 5.15307 6.34618 4.86621 8.87369L6.65472 9.07668ZM12 2.9C12.7566 2.9 13.3699 3.51335 13.3699 4.26995H15.1699C15.1699 2.51923 13.7507 1.1 12 1.1V2.9ZM12 1.1C10.2493 1.1 8.83005 2.51923 8.83005 4.26995H10.6301C10.6301 3.51335 11.2434 2.9 12 2.9V1.1ZM14.1572 19.6842C13.8573 20.4844 13.0245 21.1 12 21.1V22.9C13.7456 22.9 15.2693 21.846 15.8428 20.3158L14.1572 19.6842ZM12 21.1C10.9755 21.1 10.1427 20.4844 9.84276 19.6842L8.15724 20.3158C8.73069 21.846 10.2544 22.9 12 22.9V21.1Z" fill="#202020"/>
</svg>
